<svg width="119" height="25" viewBox="0 0 119 25" fill="none" xmlns="http://www.w3.org/2000/svg">
<rect width="119" height="25" rx="12" fill="#28A745"/>
<path d="M44.1865 11.9331H42.0972V11.0898H44.1865C44.5911 11.0898 44.9188 11.0254 45.1694 10.8965C45.4201 10.7676 45.6027 10.5885 45.7173 10.3594C45.8354 10.1302 45.8945 9.86882 45.8945 9.5752C45.8945 9.30664 45.8354 9.0542 45.7173 8.81787C45.6027 8.58154 45.4201 8.39176 45.1694 8.24854C44.9188 8.10173 44.5911 8.02832 44.1865 8.02832H42.3389V15H41.3022V7.17969H44.1865C44.7773 7.17969 45.2769 7.28174 45.6851 7.48584C46.0933 7.68994 46.403 7.97282 46.6143 8.33447C46.8255 8.69255 46.9312 9.10254 46.9312 9.56445C46.9312 10.0658 46.8255 10.4937 46.6143 10.8481C46.403 11.2026 46.0933 11.473 45.6851 11.6592C45.2769 11.8418 44.7773 11.9331 44.1865 11.9331ZM51.4536 14.0063V11.0146C51.4536 10.7855 51.4071 10.5868 51.314 10.4185C51.2244 10.2466 51.0884 10.1141 50.9058 10.021C50.7231 9.9279 50.4976 9.88135 50.229 9.88135C49.9784 9.88135 49.7581 9.92432 49.5684 10.0103C49.3822 10.0962 49.2354 10.209 49.1279 10.3486C49.0241 10.4883 48.9722 10.6387 48.9722 10.7998H47.9785C47.9785 10.5921 48.0322 10.3862 48.1396 10.1821C48.2471 9.97803 48.401 9.79362 48.6016 9.62891C48.8057 9.46061 49.0492 9.32812 49.332 9.23145C49.6185 9.13118 49.9372 9.08105 50.2881 9.08105C50.7106 9.08105 51.083 9.15267 51.4053 9.2959C51.7311 9.43913 51.9854 9.65576 52.168 9.9458C52.3542 10.2323 52.4473 10.5921 52.4473 11.0254V13.7324C52.4473 13.9258 52.4634 14.1317 52.4956 14.3501C52.5314 14.5685 52.5833 14.7565 52.6514 14.9141V15H51.6147C51.5646 14.8854 51.5252 14.7332 51.4966 14.5435C51.4679 14.3501 51.4536 14.1711 51.4536 14.0063ZM51.6255 11.4766L51.6362 12.1748H50.6318C50.349 12.1748 50.0965 12.1981 49.8745 12.2446C49.6525 12.2876 49.4663 12.3538 49.3159 12.4434C49.1655 12.5329 49.0509 12.6457 48.9722 12.7817C48.8934 12.9142 48.854 13.07 48.854 13.249C48.854 13.4316 48.8952 13.5981 48.9775 13.7485C49.0599 13.8989 49.1834 14.0189 49.3481 14.1084C49.5164 14.1943 49.7223 14.2373 49.9658 14.2373C50.2702 14.2373 50.5387 14.1729 50.7715 14.0439C51.0042 13.915 51.1886 13.7575 51.3247 13.5713C51.4644 13.3851 51.5396 13.2043 51.5503 13.0288L51.9746 13.5068C51.9495 13.6572 51.8815 13.8237 51.7705 14.0063C51.6595 14.189 51.5109 14.3644 51.3247 14.5327C51.1421 14.6974 50.9237 14.8353 50.6694 14.9463C50.4188 15.0537 50.1359 15.1074 49.8208 15.1074C49.4269 15.1074 49.0814 15.0304 48.7842 14.8765C48.4906 14.7225 48.2614 14.5166 48.0967 14.2588C47.9355 13.9974 47.855 13.7056 47.855 13.3833C47.855 13.0718 47.9159 12.7979 48.0376 12.5615C48.1593 12.3216 48.3348 12.1229 48.564 11.9653C48.7931 11.8042 49.0688 11.6825 49.3911 11.6001C49.7134 11.5177 50.0732 11.4766 50.4707 11.4766H51.6255ZM57.7754 9.18848H58.6777V14.8765C58.6777 15.3885 58.5739 15.8254 58.3662 16.187C58.1585 16.5487 57.8685 16.8226 57.4961 17.0088C57.1273 17.1986 56.7012 17.2935 56.2178 17.2935C56.0173 17.2935 55.7809 17.2612 55.5088 17.1968C55.2402 17.1359 54.9753 17.0303 54.7139 16.8799C54.4561 16.7331 54.2394 16.5343 54.064 16.2837L54.585 15.6929C54.8285 15.9865 55.0827 16.1906 55.3477 16.3052C55.6162 16.4198 55.8812 16.4771 56.1426 16.4771C56.4577 16.4771 56.7298 16.418 56.959 16.2998C57.1882 16.1816 57.3654 16.0062 57.4907 15.7734C57.6196 15.5443 57.6841 15.2614 57.6841 14.9248V10.4668L57.7754 9.18848ZM53.7739 12.1587V12.0459C53.7739 11.6019 53.8258 11.1991 53.9297 10.8374C54.0371 10.4722 54.1893 10.1589 54.3862 9.89746C54.5868 9.63607 54.8285 9.43555 55.1113 9.2959C55.3942 9.15267 55.7129 9.08105 56.0674 9.08105C56.4326 9.08105 56.7513 9.14551 57.0234 9.27441C57.2992 9.39974 57.5319 9.58415 57.7217 9.82764C57.915 10.0675 58.0672 10.3576 58.1782 10.6978C58.2892 11.0379 58.3662 11.4229 58.4092 11.8525V12.3467C58.3698 12.7728 58.2928 13.1559 58.1782 13.4961C58.0672 13.8363 57.915 14.1263 57.7217 14.3662C57.5319 14.6061 57.2992 14.7905 57.0234 14.9194C56.7477 15.0448 56.4255 15.1074 56.0566 15.1074C55.7093 15.1074 55.3942 15.034 55.1113 14.8872C54.832 14.7404 54.5921 14.5345 54.3916 14.2695C54.1911 14.0046 54.0371 13.693 53.9297 13.335C53.8258 12.9733 53.7739 12.5812 53.7739 12.1587ZM54.7676 12.0459V12.1587C54.7676 12.4487 54.7962 12.7209 54.8535 12.9751C54.9144 13.2293 55.0057 13.4531 55.1274 13.6465C55.2528 13.8398 55.4121 13.992 55.6055 14.103C55.7988 14.2104 56.0298 14.2642 56.2983 14.2642C56.6278 14.2642 56.8999 14.1943 57.1147 14.0547C57.3296 13.915 57.4997 13.7306 57.625 13.5015C57.7539 13.2723 57.8542 13.0234 57.9258 12.7549V11.4604C57.8864 11.2635 57.8255 11.0737 57.7432 10.8911C57.6644 10.7049 57.5605 10.5402 57.4316 10.397C57.3063 10.2502 57.1506 10.1338 56.9644 10.0479C56.7782 9.96191 56.5597 9.91895 56.3091 9.91895C56.0369 9.91895 55.8024 9.97624 55.6055 10.0908C55.4121 10.2018 55.2528 10.3558 55.1274 10.5527C55.0057 10.7461 54.9144 10.9717 54.8535 11.2295C54.7962 11.4837 54.7676 11.7559 54.7676 12.0459ZM63.6138 14.0063V11.0146C63.6138 10.7855 63.5672 10.5868 63.4741 10.4185C63.3846 10.2466 63.2485 10.1141 63.0659 10.021C62.8833 9.9279 62.6577 9.88135 62.3892 9.88135C62.1385 9.88135 61.9183 9.92432 61.7285 10.0103C61.5423 10.0962 61.3955 10.209 61.2881 10.3486C61.1842 10.4883 61.1323 10.6387 61.1323 10.7998H60.1387C60.1387 10.5921 60.1924 10.3862 60.2998 10.1821C60.4072 9.97803 60.5612 9.79362 60.7617 9.62891C60.9658 9.46061 61.2093 9.32812 61.4922 9.23145C61.7786 9.13118 62.0973 9.08105 62.4482 9.08105C62.8708 9.08105 63.2432 9.15267 63.5654 9.2959C63.8913 9.43913 64.1455 9.65576 64.3281 9.9458C64.5143 10.2323 64.6074 10.5921 64.6074 11.0254V13.7324C64.6074 13.9258 64.6235 14.1317 64.6558 14.3501C64.6916 14.5685 64.7435 14.7565 64.8115 14.9141V15H63.7749C63.7248 14.8854 63.6854 14.7332 63.6567 14.5435C63.6281 14.3501 63.6138 14.1711 63.6138 14.0063ZM63.7856 11.4766L63.7964 12.1748H62.792C62.5091 12.1748 62.2567 12.1981 62.0347 12.2446C61.8127 12.2876 61.6265 12.3538 61.4761 12.4434C61.3257 12.5329 61.2111 12.6457 61.1323 12.7817C61.0535 12.9142 61.0142 13.07 61.0142 13.249C61.0142 13.4316 61.0553 13.5981 61.1377 13.7485C61.2201 13.8989 61.3436 14.0189 61.5083 14.1084C61.6766 14.1943 61.8825 14.2373 62.126 14.2373C62.4303 14.2373 62.6989 14.1729 62.9316 14.0439C63.1644 13.915 63.3488 13.7575 63.4849 13.5713C63.6245 13.3851 63.6997 13.2043 63.7104 13.0288L64.1348 13.5068C64.1097 13.6572 64.0417 13.8237 63.9307 14.0063C63.8197 14.189 63.6711 14.3644 63.4849 14.5327C63.3022 14.6974 63.0838 14.8353 62.8296 14.9463C62.5789 15.0537 62.2961 15.1074 61.981 15.1074C61.5871 15.1074 61.2415 15.0304 60.9443 14.8765C60.6507 14.7225 60.4215 14.5166 60.2568 14.2588C60.0957 13.9974 60.0151 13.7056 60.0151 13.3833C60.0151 13.0718 60.076 12.7979 60.1978 12.5615C60.3195 12.3216 60.495 12.1229 60.7241 11.9653C60.9533 11.8042 61.229 11.6825 61.5513 11.6001C61.8735 11.5177 62.2334 11.4766 62.6309 11.4766H63.7856ZM69.8335 13.8721V6.75H70.8325V15H69.9194L69.8335 13.8721ZM65.9233 12.1587V12.0459C65.9233 11.6019 65.9771 11.1991 66.0845 10.8374C66.1955 10.4722 66.3512 10.1589 66.5518 9.89746C66.7559 9.63607 66.9976 9.43555 67.2769 9.2959C67.5597 9.15267 67.8748 9.08105 68.2222 9.08105C68.5874 9.08105 68.9061 9.14551 69.1782 9.27441C69.4539 9.39974 69.6867 9.58415 69.8765 9.82764C70.0698 10.0675 70.222 10.3576 70.333 10.6978C70.444 11.0379 70.521 11.4229 70.564 11.8525V12.3467C70.5246 12.7728 70.4476 13.1559 70.333 13.4961C70.222 13.8363 70.0698 14.1263 69.8765 14.3662C69.6867 14.6061 69.4539 14.7905 69.1782 14.9194C68.9025 15.0448 68.5802 15.1074 68.2114 15.1074C67.8713 15.1074 67.5597 15.034 67.2769 14.8872C66.9976 14.7404 66.7559 14.5345 66.5518 14.2695C66.3512 14.0046 66.1955 13.693 66.0845 13.335C65.9771 12.9733 65.9233 12.5812 65.9233 12.1587ZM66.9224 12.0459V12.1587C66.9224 12.4487 66.951 12.7209 67.0083 12.9751C67.0692 13.2293 67.1623 13.4531 67.2876 13.6465C67.4129 13.8398 67.5723 13.992 67.7656 14.103C67.959 14.2104 68.1899 14.2642 68.4585 14.2642C68.7879 14.2642 69.0583 14.1943 69.2695 14.0547C69.4844 13.915 69.6562 13.7306 69.7852 13.5015C69.9141 13.2723 70.0143 13.0234 70.0859 12.7549V11.4604C70.043 11.2635 69.9803 11.0737 69.8979 10.8911C69.8192 10.7049 69.7153 10.5402 69.5864 10.397C69.4611 10.2502 69.3053 10.1338 69.1191 10.0479C68.9365 9.96191 68.7199 9.91895 68.4692 9.91895C68.1971 9.91895 67.9626 9.97624 67.7656 10.0908C67.5723 10.2018 67.4129 10.3558 67.2876 10.5527C67.1623 10.7461 67.0692 10.9717 67.0083 11.2295C66.951 11.4837 66.9224 11.7559 66.9224 12.0459ZM75.8062 14.0063V11.0146C75.8062 10.7855 75.7596 10.5868 75.6665 10.4185C75.577 10.2466 75.4409 10.1141 75.2583 10.021C75.0757 9.9279 74.8501 9.88135 74.5815 9.88135C74.3309 9.88135 74.1107 9.92432 73.9209 10.0103C73.7347 10.0962 73.5879 10.209 73.4805 10.3486C73.3766 10.4883 73.3247 10.6387 73.3247 10.7998H72.3311C72.3311 10.5921 72.3848 10.3862 72.4922 10.1821C72.5996 9.97803 72.7536 9.79362 72.9541 9.62891C73.1582 9.46061 73.4017 9.32812 73.6846 9.23145C73.971 9.13118 74.2897 9.08105 74.6406 9.08105C75.0632 9.08105 75.4355 9.15267 75.7578 9.2959C76.0837 9.43913 76.3379 9.65576 76.5205 9.9458C76.7067 10.2323 76.7998 10.5921 76.7998 11.0254V13.7324C76.7998 13.9258 76.8159 14.1317 76.8481 14.3501C76.884 14.5685 76.9359 14.7565 77.0039 14.9141V15H75.9673C75.9172 14.8854 75.8778 14.7332 75.8491 14.5435C75.8205 14.3501 75.8062 14.1711 75.8062 14.0063ZM75.978 11.4766L75.9888 12.1748H74.9844C74.7015 12.1748 74.4491 12.1981 74.2271 12.2446C74.005 12.2876 73.8188 12.3538 73.6685 12.4434C73.5181 12.5329 73.4035 12.6457 73.3247 12.7817C73.2459 12.9142 73.2065 13.07 73.2065 13.249C73.2065 13.4316 73.2477 13.5981 73.3301 13.7485C73.4124 13.8989 73.536 14.0189 73.7007 14.1084C73.869 14.1943 74.0749 14.2373 74.3184 14.2373C74.6227 14.2373 74.8913 14.1729 75.124 14.0439C75.3568 13.915 75.5412 13.7575 75.6772 13.5713C75.8169 13.3851 75.8921 13.2043 75.9028 13.0288L76.3271 13.5068C76.3021 13.6572 76.234 13.8237 76.123 14.0063C76.012 14.189 75.8634 14.3644 75.6772 14.5327C75.4946 14.6974 75.2762 14.8353 75.022 14.9463C74.7713 15.0537 74.4884 15.1074 74.1733 15.1074C73.7795 15.1074 73.4339 15.0304 73.1367 14.8765C72.8431 14.7225 72.6139 14.5166 72.4492 14.2588C72.2881 13.9974 72.2075 13.7056 72.2075 13.3833C72.2075 13.0718 72.2684 12.7979 72.3901 12.5615C72.5119 12.3216 72.6873 12.1229 72.9165 11.9653C73.1457 11.8042 73.4214 11.6825 73.7437 11.6001C74.0659 11.5177 74.4258 11.4766 74.8232 11.4766H75.978Z" fill="#F1FAEE"/>
</svg>
