<svg xmlns="http://www.w3.org/2000/svg" version="1.1" xmlns:xlink="http://www.w3.org/1999/xlink" xmlns:svgjs="http://svgjs.com/svgjs" width="1440" height="560" preserveAspectRatio="none" viewBox="0 0 1440 560"><g mask="url(&quot;#SvgjsMask1000&quot;)" fill="none"><rect width="1440" height="560" x="0" y="0" fill="#1e3266"></rect><path d="M1512 560L0 560 L0 377.19Q14.93 320.12, 72 335.05Q126.42 269.47, 192 323.89Q273.12 285, 312 366.12Q336.23 270.35, 432 294.58Q473.94 264.51, 504 306.45Q574.18 256.63, 624 326.82Q678.95 261.77, 744 316.73Q765.39 266.12, 816 287.51Q883.35 234.86, 936 302.2Q1012.9 259.11, 1056 336.01Q1108.06 316.06, 1128 368.12Q1154.33 274.44, 1248 300.77Q1293.39 274.16, 1320 319.56Q1341.27 268.82, 1392 290.09Q1480.49 258.58, 1512 347.07z" fill="#182f5d"></path><path d="M1536 560L0 560 L0 411.91Q64.43 356.34, 120 420.77Q131.78 360.55, 192 372.33Q268.61 328.94, 312 405.55Q345.41 318.96, 432 352.36Q513.17 313.53, 552 394.7Q613.45 384.15, 624 445.61Q626.7 376.31, 696 379.01Q748.14 311.15, 816 363.29Q884.49 359.78, 888 428.27Q922.58 342.85, 1008 377.43Q1059.47 356.9, 1080 408.38Q1093.64 350.02, 1152 363.67Q1196.12 335.78, 1224 379.9Q1316.44 352.34, 1344 444.78Q1371.22 400, 1416 427.23Q1442.95 334.19, 1536 361.14z" fill="#25467d"></path><path d="M1512 560L0 560 L0 455.5Q36.47 419.97, 72 456.43Q125.94 390.38, 192 444.32Q251.27 431.59, 264 490.86Q288.85 395.71, 384 420.56Q429.15 393.71, 456 438.86Q530.47 393.33, 576 467.79Q620.97 440.75, 648 485.72Q658.17 423.89, 720 434.06Q761.44 403.5, 792 444.95Q840.54 421.49, 864 470.02Q900.81 386.83, 984 423.64Q1052.38 372.02, 1104 440.41Q1159.77 424.18, 1176 479.95Q1198.8 430.75, 1248 453.54Q1293.4 378.95, 1368 424.35Q1424.3 408.65, 1440 464.96Q1487.84 440.8, 1512 488.64z" fill="#356cb1"></path><path d="M1512 560L0 560 L0 578.23Q38.37 496.6, 120 534.96Q170.19 513.15, 192 563.34Q216.46 467.8, 312 492.25Q378.39 438.64, 432 505.03Q491.88 492.91, 504 552.8Q529.2 506, 576 531.19Q602.01 485.21, 648 511.22Q741.66 484.88, 768 578.54Q821.78 512.32, 888 566.1Q936.38 494.48, 1008 542.86Q1088.95 503.81, 1128 584.76Q1180.79 517.55, 1248 570.33Q1264.57 514.89, 1320 531.46Q1369.23 460.69, 1440 509.92Q1498.32 496.24, 1512 554.56z" fill="white"></path></g><defs><mask id="SvgjsMask1000"><rect width="1440" height="560" fill="#ffffff"></rect></mask></defs></svg>